<mxfile host="65bd71144e">
    <diagram id="FVIXA4arJccDRwpe_Vvz" name="Page-1">
        <mxGraphModel dx="977" dy="568" grid="1" gridSize="10" guides="1" tooltips="1" connect="1" arrows="1" fold="1" page="1" pageScale="1" pageWidth="1169" pageHeight="1654" math="0" shadow="0">
            <root>
                <mxCell id="0"/>
                <mxCell id="1" parent="0"/>
                <mxCell id="3" value="&lt;font style=&quot;font-size: 24px;&quot;&gt;LOGIN&lt;/font&gt;" style="rounded=0;whiteSpace=wrap;html=1;" vertex="1" parent="1">
                    <mxGeometry x="370" y="330" width="120" height="60" as="geometry"/>
                </mxCell>
                <mxCell id="5" value="" style="endArrow=classic;html=1;fontSize=24;exitX=0.9;exitY=0.5;exitDx=0;exitDy=0;exitPerimeter=0;entryX=0;entryY=0.5;entryDx=0;entryDy=0;" edge="1" parent="1" target="3">
                    <mxGeometry width="50" height="50" relative="1" as="geometry">
                        <mxPoint x="255" y="360" as="sourcePoint"/>
                        <mxPoint x="460" y="350" as="targetPoint"/>
                    </mxGeometry>
                </mxCell>
                <mxCell id="8" value="&lt;font style=&quot;font-size: 14px;&quot;&gt;Presentacion de datos de la base&lt;/font&gt;" style="rounded=0;whiteSpace=wrap;html=1;fontSize=24;" vertex="1" parent="1">
                    <mxGeometry x="540" y="430" width="150" height="80" as="geometry"/>
                </mxCell>
                <mxCell id="23" style="edgeStyle=none;html=1;entryX=0.5;entryY=0;entryDx=0;entryDy=0;fontSize=14;" edge="1" parent="1" source="9" target="10">
                    <mxGeometry relative="1" as="geometry"/>
                </mxCell>
                <mxCell id="9" value="&lt;font style=&quot;font-size: 14px;&quot;&gt;Presentacion de Datos del Usuario&amp;nbsp;&lt;/font&gt;" style="rounded=0;whiteSpace=wrap;html=1;fontSize=24;" vertex="1" parent="1">
                    <mxGeometry x="540" y="550" width="150" height="80" as="geometry"/>
                </mxCell>
                <mxCell id="10" value="&lt;font size=&quot;3&quot;&gt;Diagrama AFD&lt;/font&gt;" style="rounded=0;whiteSpace=wrap;html=1;fontSize=24;" vertex="1" parent="1">
                    <mxGeometry x="540" y="660" width="150" height="80" as="geometry"/>
                </mxCell>
                <mxCell id="15" value="&lt;font style=&quot;font-size: 18px;&quot;&gt;usuario&lt;/font&gt;" style="shape=umlActor;verticalLabelPosition=bottom;verticalAlign=top;html=1;outlineConnect=0;fontSize=24;" vertex="1" parent="1">
                    <mxGeometry x="200" y="330" width="30" height="60" as="geometry"/>
                </mxCell>
                <mxCell id="18" value="" style="endArrow=classic;html=1;fontSize=14;exitX=0.5;exitY=1;exitDx=0;exitDy=0;entryX=0.5;entryY=0;entryDx=0;entryDy=0;" edge="1" parent="1" source="8" target="9">
                    <mxGeometry width="50" height="50" relative="1" as="geometry">
                        <mxPoint x="470" y="420" as="sourcePoint"/>
                        <mxPoint x="520" y="370" as="targetPoint"/>
                    </mxGeometry>
                </mxCell>
                <mxCell id="20" value="Condition: login = true" style="rounded=0;whiteSpace=wrap;html=1;fontSize=14;" vertex="1" parent="1">
                    <mxGeometry x="560" y="340" width="120" height="60" as="geometry"/>
                </mxCell>
                <mxCell id="24" value="" style="endArrow=classic;html=1;fontSize=14;entryX=0.552;entryY=-0.035;entryDx=0;entryDy=0;exitX=0.5;exitY=1;exitDx=0;exitDy=0;entryPerimeter=0;" edge="1" parent="1" source="20" target="8">
                    <mxGeometry width="50" height="50" relative="1" as="geometry">
                        <mxPoint x="590" y="390" as="sourcePoint"/>
                        <mxPoint x="640" y="340" as="targetPoint"/>
                    </mxGeometry>
                </mxCell>
                <mxCell id="25" value="Condition: login = false" style="rounded=0;whiteSpace=wrap;html=1;fontSize=14;" vertex="1" parent="1">
                    <mxGeometry x="370" y="200" width="120" height="60" as="geometry"/>
                </mxCell>
                <mxCell id="26" value="" style="shape=cylinder3;whiteSpace=wrap;html=1;boundedLbl=1;backgroundOutline=1;size=15;fontSize=14;" vertex="1" parent="1">
                    <mxGeometry x="810" y="480" width="60" height="80" as="geometry"/>
                </mxCell>
                <mxCell id="27" value="DataBase" style="text;html=1;align=center;verticalAlign=middle;resizable=0;points=[];autosize=1;strokeColor=none;fillColor=none;fontSize=14;" vertex="1" parent="1">
                    <mxGeometry x="800" y="575" width="80" height="30" as="geometry"/>
                </mxCell>
                <mxCell id="28" value="" style="endArrow=classic;html=1;fontSize=14;exitX=0;exitY=0.5;exitDx=0;exitDy=0;exitPerimeter=0;entryX=1;entryY=0.5;entryDx=0;entryDy=0;" edge="1" parent="1" source="26" target="8">
                    <mxGeometry width="50" height="50" relative="1" as="geometry">
                        <mxPoint x="750" y="440" as="sourcePoint"/>
                        <mxPoint x="800" y="390" as="targetPoint"/>
                    </mxGeometry>
                </mxCell>
                <mxCell id="29" value="" style="endArrow=classic;html=1;fontSize=14;entryX=1.016;entryY=0.655;entryDx=0;entryDy=0;entryPerimeter=0;" edge="1" parent="1" target="9">
                    <mxGeometry width="50" height="50" relative="1" as="geometry">
                        <mxPoint x="810" y="520" as="sourcePoint"/>
                        <mxPoint x="940" y="630" as="targetPoint"/>
                    </mxGeometry>
                </mxCell>
                <mxCell id="30" value="Tirar bomba" style="rounded=0;whiteSpace=wrap;html=1;fontSize=14;" vertex="1" parent="1">
                    <mxGeometry x="300" y="660" width="150" height="80" as="geometry"/>
                </mxCell>
                <mxCell id="31" value="" style="endArrow=classic;html=1;fontSize=14;entryX=1;entryY=0.5;entryDx=0;entryDy=0;" edge="1" parent="1" target="30">
                    <mxGeometry width="50" height="50" relative="1" as="geometry">
                        <mxPoint x="540" y="700" as="sourcePoint"/>
                        <mxPoint x="590" y="650" as="targetPoint"/>
                    </mxGeometry>
                </mxCell>
                <mxCell id="32" value="" style="curved=1;endArrow=classic;html=1;fontSize=14;exitX=0;exitY=0.5;exitDx=0;exitDy=0;exitPerimeter=0;entryX=0.5;entryY=1;entryDx=0;entryDy=0;" edge="1" parent="1" source="26" target="30">
                    <mxGeometry width="50" height="50" relative="1" as="geometry">
                        <mxPoint x="890" y="700" as="sourcePoint"/>
                        <mxPoint x="940" y="650" as="targetPoint"/>
                        <Array as="points">
                            <mxPoint x="950" y="790"/>
                            <mxPoint x="440" y="830"/>
                        </Array>
                    </mxGeometry>
                </mxCell>
                <mxCell id="35" value="" style="endArrow=classic;html=1;fontSize=14;entryX=0;entryY=0.25;entryDx=0;entryDy=0;" edge="1" parent="1" target="20">
                    <mxGeometry width="50" height="50" relative="1" as="geometry">
                        <mxPoint x="490" y="360" as="sourcePoint"/>
                        <mxPoint x="540" y="310" as="targetPoint"/>
                    </mxGeometry>
                </mxCell>
                <mxCell id="36" value="" style="endArrow=classic;html=1;fontSize=14;entryX=0.5;entryY=1;entryDx=0;entryDy=0;" edge="1" parent="1" target="25">
                    <mxGeometry width="50" height="50" relative="1" as="geometry">
                        <mxPoint x="420" y="330" as="sourcePoint"/>
                        <mxPoint x="470" y="280" as="targetPoint"/>
                    </mxGeometry>
                </mxCell>
                <mxCell id="37" value="Salida del Programa" style="rounded=0;whiteSpace=wrap;html=1;fontSize=14;" vertex="1" parent="1">
                    <mxGeometry x="555" y="200" width="120" height="60" as="geometry"/>
                </mxCell>
                <mxCell id="39" value="" style="endArrow=classic;html=1;fontSize=14;entryX=0;entryY=0.5;entryDx=0;entryDy=0;" edge="1" parent="1" target="37">
                    <mxGeometry width="50" height="50" relative="1" as="geometry">
                        <mxPoint x="490" y="230" as="sourcePoint"/>
                        <mxPoint x="540" y="180" as="targetPoint"/>
                    </mxGeometry>
                </mxCell>
            </root>
        </mxGraphModel>
    </diagram>
</mxfile>